# AST/ASF file generated using VICON BodyLanguage
# -----------------------------------------------
:version 1.10
:name VICON
:units
  mass 1.0
  length 0.45
  angle deg
:documentation
   .ast/.asf automatically generated from VICON data using
   VICON BodyBuilder and BodyLanguage model FoxedUp or BRILLIANT.MOD
:root
   order TX TY TZ RX RY RZ
   axis XYZ
   position 0 0 0  
   orientation 0 0 0 
:bonedata
  begin
     id 1 
     name lhipjoint
     direction 0.693937 -0.600361 0.397515 
     length 2.37164 
     axis 0 0 0  XYZ
  end
  begin
     id 2 
     name lfemur
     direction 0.34202 -0.939693 0  
     length 6.18497  
     axis 0 0 20  XYZ
    dof rx ry rz
    limits (-160.0 20.0)
           (-70.0 70.0)
           (-60.0 70.0)
  end
  begin
     id 3 
     name ltibia
     direction 0.34202 -0.939693 0   
     length 6.91601   
     axis 0 0 20   XYZ
    dof rx
    limits (-10.0 170.0)
  end
  begin
     id 4 
     name lfoot
     direction 0.0978718 -0.2689 0.958182   
     length 1.81453   
     axis -90 7.62852e-016 20   XYZ
    dof rx rz
    limits (-45.0 90.0)
           (-70.0 20.0)
  end
  begin
     id 5 
     name ltoes
     direction 1.53569e-011 -4.21951e-011 1   
     length 0.912052   
     axis -90 7.62852e-016 20   XYZ
    dof rx
    limits (-90.0 20.0)
  end
  begin
     id 6 
     name rhipjoint
     direction -0.643996 -0.637876 0.422354   
     length 2.23216  
     axis 0 0 0  XYZ 
  end
  begin
     id 7 
     name rfemur
     direction -0.34202 -0.939693 0   
     length 6.15404   
     axis 0 0 -20   XYZ
    dof rx ry rz
    limits (-160.0 20.0)
           (-70.0 70.0)
           (-70.0 60.0)
  end
  begin
     id 8 
     name rtibia
     direction -0.34202 -0.939693 0   
     length 6.86744   
     axis 0 0 -20   XYZ
    dof rx
    limits (-10.0 170.0)
 end
 begin
     id 9 
     name rfoot
     direction -0.118701 -0.326127 0.937844   
     length 1.9243  
     axis -90 -7.62852e-016 -20   XYZ
    dof rx rz
    limits (-45.0 90.0)
           (-20.0 70.0)
  end
  begin
     id 10 
     name rtoes
     direction -1.5356e-011 -4.2181e-011 1   
     length 0.958865   
     axis -90 -7.62852e-016 -20   XYZ
    dof rx
    limits (-90.0 20.0)
  end
  begin
     id 11 
     name lowerback
     direction 0.0310826 0.968686 -0.246334   
     length 2.00021   
     axis 0 0 0   XYZ
    dof rx ry rz
    limits (-20.0 45.0)
           (-30.0 30.0)
           (-30.0 30.0)
  end
  begin
     id 12 
     name upperback
     direction -0.0152834 0.999474 -0.0286152   
     length 2.03728   
     axis 0 0 0   XYZ
    dof rx ry rz
    limits (-20.0 45.0)
           (-30.0 30.0)
           (-30.0 30.0)
  end
  begin
     id 13 
     name thorax
     direction -0.0323701 0.996236 0.0804149   
     length 2.16   
     axis 0 0 0   XYZ
    dof rx ry rz
    limits (-20.0 45.0)
           (-30.0 30.0)
           (-30.0 30.0)
  end
  begin
     id 14 
     name lowerneck
     direction 0.0307935 0.982251 0.185027   
     length 1.43558   
     axis 0 0 0   XYZ
    dof rx ry rz
    limits (-20.0 45.0)
           (-30.0 30.0)
           (-30.0 30.0)
  end
  begin
     id 15 
     name upperneck
     direction -0.0927153 0.994775 0.0427454   
     length 1.44603   
     axis 0 0 0   XYZ
    dof rx ry rz
    limits (-20.0 45.0)
           (-30.0 30.0)
           (-30.0 30.0)
  end
  begin
     id 16
     name head
     direction -0.0341265 0.999406 -0.00472033  
     length 1.45931  
     axis 0 0 0   XYZ
    dof rx ry rz
    limits (-20.0 45.0)
           (-30.0 30.0)
           (-30.0 30.0)
  end
  begin
     id 17 
     name lclavicle
     direction 0.820755 0.555306 -0.134151  
     length 2.66075  
     axis 0 0 0   XYZ
    dof ry rz
    limits (-20.0 10.0)
           (0.0 20.0)
  end
  begin
     id 18 
     name lhumerus
     direction 1 -4.48971e-011 5.24853e-027   
     length 5.0546   
     axis -180 -30 -90   XYZ
    dof rx ry rz
    limits (-60.0 90.0)
           (-90.0 90.0)
           (-90.0 90.0)
  end
  begin
     id 19
     name lradius
     direction 1 -4.48971e-011 2.76575e-028   
     length 3.39013   
     axis -180 -30 -90   XYZ
    dof rx
    limits (-10.0 170.0)
  end
  begin
     id 20
     name lwrist
     direction 1 -4.48939e-011 -2.27826e-027   
     length 1.69507   
     axis 2.17013e-015 90 90   XYZ
    dof ry
    limits (-180.0 0.0)
 end
  begin
     id 21 
     name lhand
     direction 1 -4.49009e-011 -4.55652e-027   
     length 0.572425   
     axis 2.90745e-015 90 90   XYZ
    dof rx rz
    limits (-90.0 90.0)
           (-45.0 45.0)
  end
  begin
     id 22 
     name lfingers
     direction 1 -4.48955e-011 -9.11303e-027   
     length 0.461504   
     axis 5.81489e-015 90 90   XYZ
    dof rx
    limits (0.0 90.0)
  end
  begin
     id 23
     name lthumb
     direction 0.707107 -6.34929e-011 0.707107   
     length 0.66263   
     axis -90 45 2.85299e-015   XYZ
    dof rx rz
    limits (-45.0 45.0)
           (-45.0 45.0)
  end
  begin
     id 24 
     name rclavicle
     direction -0.754477 0.632921 -0.173712   
     length 2.73081  
     axis 0 0 0   XYZ 
    dof ry rz
    limits (-10.0 20.0)
           (-20.0 0.0)
  end
  begin
     id 25 
     name rhumerus
     direction -1 -4.48969e-011 5.1496e-027  
     length 5.0701   
     axis -180 30 90   XYZ
    dof rx ry rz
    limits (-90.0 60.0)
           (-90.0 90.0)
           (-90.0 90.0)
  end
  begin
     id 26 
     name rradius
     direction -1 -4.48967e-011 -7.15624e-028   
     length 3.14957   
     axis -180 30 90   XYZ
    dof rx
    limits (-10.0 170.0)
  end
  begin
     id 27 
     name rwrist
     direction -1 -4.48938e-011 -2.27826e-027   
     length 1.57479   
     axis 2.17013e-015 -90 -90   XYZ
    dof ry
    limits (-180.0 0.0)
  end
  begin
     id 28
     name rhand
     direction -1 -4.49008e-011 -4.55652e-027   
     length 0.718191   
     axis 2.90745e-015 -90 -90   XYZ
    dof rx rz
    limits (-90.0 90.0)
           (-45.0 45.0)
  end
  begin
     id 29
     name rfingers
     direction -1 -4.48953e-011 -9.11303e-027   
     length 0.579024   
     axis 5.81489e-015 -90 -90   XYZ
    dof rx
    limits (0.0 90.0)
  end
  begin
     id 30
     name rthumb
     direction -0.707107 -6.34937e-011 0.707107   
     length 0.831366   
     axis -90 -45 -2.85299e-015   XYZ
    dof rx rz
    limits (-45.0 45.0)
           (-45.0 45.0)
  end
:hierarchy
  begin
    root lhipjoint rhipjoint lowerback
    lhipjoint lfemur
    lfemur ltibia
    ltibia lfoot
    lfoot ltoes
    rhipjoint rfemur
    rfemur rtibia
    rtibia rfoot
    rfoot rtoes
    lowerback upperback
    upperback thorax
    thorax lowerneck lclavicle rclavicle
    lowerneck upperneck
    upperneck head
    lclavicle lhumerus
    lhumerus lradius
    lradius lwrist
    lwrist lhand lthumb
    lhand lfingers
    rclavicle rhumerus
    rhumerus rradius
    rradius rwrist
    rwrist rhand rthumb
    rhand rfingers
  end

#!OML:ASF H:\Male1\Project 1\Capture day 1\Session 1\Male1.ASF
:FULLY-SPECIFIED
:DEGREES
270
root 14.4656 14.9292 1.06203 -12.1605 -94.4145 4.47456
lowerback 4.44927 1.86466 2.73805
upperback 2.32245 2.54127 -1.32905
thorax 0.0763423 1.28685 -3.00615
lowerneck -11.864 5.37136 20.5023
upperneck 11.5172 -56.9028 -4.13311
head 383.341 -48.0115 -168.198
rclavicle -1.18898e-014 1.98785e-015
rhumerus -45.1803 18.0456 -96.7712
rradius 43.3723
rwrist -27.9507
rhand -16.8554 -3.45636
rfingers 7.12502
rthumb 9.37484 -33.2279
lclavicle -1.18898e-014 1.98785e-015
lhumerus -36.4873 -13.7815 88.4737
lradius 42.6509
lwrist 8.2149
lhand -17.8147 12.8911
lfingers 7.12502
lthumb 8.4492 42.7021
rfemur 2.51759 10.9318 31.9381
rtibia 33.2622
rfoot -38.6922 -27.5753
rtoes -10.543
lfemur -13.7627 -12.9265 -20.7493
ltibia 44.151
lfoot -21.6851 8.26696
ltoes -16.6237
271
root 14.4843 14.9269 1.03638 -17.0946 -93.9828 9.31063
lowerback 4.74498 1.86116 2.72814
upperback 2.36198 2.53895 -1.44377
thorax -0.0428737 1.28349 -3.12931
lowerneck -13.5212 4.98726 20.1403
upperneck 11.9211 -58.4203 -4.74033
head 383.488 -49.4707 -167.413
rclavicle -5.28829e-014 1.19271e-014
rhumerus -45.568 17.6699 -96.8062
rradius 43.8409
rwrist -28.1352
rhand -17.2484 -3.75451
rfingers 7.12502
rthumb 8.99565 -33.5427
lclavicle -5.28829e-014 1.19271e-014
lhumerus -36.3949 -13.3592 88.1949
lradius 43.0028
lwrist 7.73422
lhand -18.5025 11.7151
lfingers 7.12502
lthumb 7.78534 41.5518
rfemur 2.5816 10.5155 32.3108
rtibia 33.1095
rfoot -38.5324 -27.673
rtoes -9.81513
lfemur -14.1691 -12.8433 -20.3472
ltibia 44.702
lfoot -21.2941 7.87379
ltoes -16.5806
272
root 14.5061 14.928 1.00791 -18.8282 -93.4435 11.0004
lowerback 5.02253 1.86923 2.37674
upperback 2.37523 2.53528 -1.60546
thorax -0.192564 1.27583 -3.10907
lowerneck -15.163 4.56234 19.7381
upperneck 12.4022 -59.884 -5.42659
head 383.525 -50.7312 -166.459
rclavicle -2.88797e-014 9.14409e-015
rhumerus -46.0574 17.4455 -96.8721
rradius 44.3608
rwrist -28.5899
rhand -17.5416 -3.85089
rfingers 7.12502
rthumb 8.71271 -33.6511
lclavicle -2.88797e-014 9.14409e-015
lhumerus -36.3322 -12.8252 87.9345
lradius 43.2871
lwrist 7.25862
lhand -18.9562 10.992
lfingers 7.12502
lthumb 7.34741 40.8444
rfemur 2.55271 10.4067 32.4919
rtibia 32.9973
rfoot -38.6134 -28.1566
rtoes -8.60834
lfemur -14.6322 -12.7548 -20.2814
ltibia 45.2263
lfoot -20.7864 7.73204
ltoes -17.3268
273
root 14.527 14.9263 0.985035 -22.1343 -93.1081 14.1316
lowerback 5.3535 1.95669 2.18514
upperback 2.5146 2.64056 -1.71845
thorax -0.229203 1.32592 -3.13289
lowerneck -16.927 4.127 19.2935
upperneck 12.7257 -61.1646 -5.96336
head 383.479 -51.6638 -165.483
rclavicle -6.36732e-016 -1.03368e-014
rhumerus -46.3283 17.4294 -96.884
rradius 44.7222
rwrist -29.087
rhand -17.6325 -3.84154
rfingers 7.12502
rthumb 8.62503 -33.6454
lclavicle -6.36732e-016 -1.03368e-014
lhumerus -36.1667 -12.3409 87.7111
lradius 43.4936
lwrist 6.91709
lhand -19.4423 10.5645
lfingers 7.12502
lthumb 6.87825 40.4327
rfemur 2.60385 10.2368 32.7452
rtibia 32.9346
rfoot -38.5009 -28.7068
rtoes -7.85902
lfemur -14.9196 -12.7056 -20.1852
ltibia 45.7538
lfoot -20.2882 7.85332
ltoes -18.2927
274
root 14.5521 14.9275 0.963188 -23.089 -92.7466 15.1114
lowerback 5.54681 2.01233 1.85274
upperback 2.62999 2.69396 -1.83946
thorax -0.224129 1.34935 -3.0789
lowerneck -18.7222 3.58865 18.879
upperneck 13.4455 -62.6275 -6.94499
head 383.238 -53.0801 -164.034
rclavicle -3.69538e-015 6.36111e-015
rhumerus -46.5062 17.6048 -96.8456
rradius 44.9793
rwrist -29.3195
rhand -17.5184 -3.531
rfingers 7.12502
rthumb 8.7351 -33.3302
lclavicle -3.69538e-015 6.36111e-015
lhumerus -35.9654 -11.6552 87.4743
lradius 43.5848
lwrist 6.63979
lhand -20.1645 10.2021
lfingers 7.12502
lthumb 6.18104 40.0919
rfemur 2.44984 9.94406 32.7106
rtibia 32.8694
rfoot -38.4718 -28.7145
rtoes -7.29874
lfemur -15.4574 -12.6545 -20.1974
ltibia 46.3386
lfoot -19.789 7.9234
ltoes -19.6549
